<svg width="69" height="70" viewBox="0 0 69 70" fill="none" xmlns="http://www.w3.org/2000/svg">
<path d="M19.6639 2.56481C19.6639 1.88458 19.3937 1.23221 18.9127 0.751217C18.4317 0.270221 17.7793 0 17.0991 0C16.4189 0 15.7665 0.270221 15.2855 0.751217C14.8045 1.23221 14.5343 1.88458 14.5343 2.56481V7.96802C9.60985 8.3613 6.38161 9.32567 4.0083 11.7024C1.63157 14.0757 0.667199 17.3074 0.270508 22.2284H68.1252C67.7286 17.304 66.7642 14.0757 64.3875 11.7024C62.0141 9.32567 58.7825 8.3613 53.8615 7.9646V2.56481C53.8615 1.88458 53.5912 1.23221 53.1102 0.751217C52.6292 0.270221 51.9769 0 51.2966 0C50.6164 0 49.964 0.270221 49.483 0.751217C49.002 1.23221 48.7318 1.88458 48.7318 2.56481V7.7389C46.4577 7.69444 43.9066 7.69444 41.0374 7.69444H27.3584C24.4892 7.69444 21.9381 7.69444 19.6639 7.7389V2.56481Z" fill="#F68A1E" fill-opacity="0.8"/>
<path fill-rule="evenodd" clip-rule="evenodd" d="M0 35.0528C0 32.1837 3.82187e-08 29.6325 0.0444568 27.3584H68.3506C68.3951 29.6325 68.3951 32.1837 68.3951 35.0528V41.8923C68.3951 54.7882 68.3951 61.2379 64.3871 65.2424C60.3792 69.247 53.9329 69.2504 41.037 69.2504H27.358C14.4621 69.2504 8.01248 69.2504 4.00795 65.2424C0.00341951 61.2345 0 54.7882 0 41.8923V35.0528ZM51.2963 41.8923C52.2033 41.8923 53.0731 41.5321 53.7144 40.8907C54.3558 40.2494 54.7161 39.3796 54.7161 38.4726C54.7161 37.5656 54.3558 36.6958 53.7144 36.0545C53.0731 35.4131 52.2033 35.0528 51.2963 35.0528C50.3893 35.0528 49.5195 35.4131 48.8782 36.0545C48.2368 36.6958 47.8765 37.5656 47.8765 38.4726C47.8765 39.3796 48.2368 40.2494 48.8782 40.8907C49.5195 41.5321 50.3893 41.8923 51.2963 41.8923ZM51.2963 55.5714C52.2033 55.5714 53.0731 55.2111 53.7144 54.5697C54.3558 53.9284 54.7161 53.0586 54.7161 52.1516C54.7161 51.2446 54.3558 50.3748 53.7144 49.7335C53.0731 49.0921 52.2033 48.7319 51.2963 48.7319C50.3893 48.7319 49.5195 49.0921 48.8782 49.7335C48.2368 50.3748 47.8765 51.2446 47.8765 52.1516C47.8765 53.0586 48.2368 53.9284 48.8782 54.5697C49.5195 55.2111 50.3893 55.5714 51.2963 55.5714ZM37.6173 38.4726C37.6173 39.3796 37.257 40.2494 36.6157 40.8907C35.9743 41.5321 35.1045 41.8923 34.1975 41.8923C33.2906 41.8923 32.4207 41.5321 31.7794 40.8907C31.1381 40.2494 30.7778 39.3796 30.7778 38.4726C30.7778 37.5656 31.1381 36.6958 31.7794 36.0545C32.4207 35.4131 33.2906 35.0528 34.1975 35.0528C35.1045 35.0528 35.9743 35.4131 36.6157 36.0545C37.257 36.6958 37.6173 37.5656 37.6173 38.4726ZM37.6173 52.1516C37.6173 53.0586 37.257 53.9284 36.6157 54.5697C35.9743 55.2111 35.1045 55.5714 34.1975 55.5714C33.2906 55.5714 32.4207 55.2111 31.7794 54.5697C31.1381 53.9284 30.7778 53.0586 30.7778 52.1516C30.7778 51.2446 31.1381 50.3748 31.7794 49.7335C32.4207 49.0921 33.2906 48.7319 34.1975 48.7319C35.1045 48.7319 35.9743 49.0921 36.6157 49.7335C37.257 50.3748 37.6173 51.2446 37.6173 52.1516ZM17.0988 41.8923C18.0057 41.8923 18.8756 41.5321 19.5169 40.8907C20.1582 40.2494 20.5185 39.3796 20.5185 38.4726C20.5185 37.5656 20.1582 36.6958 19.5169 36.0545C18.8756 35.4131 18.0057 35.0528 17.0988 35.0528C16.1918 35.0528 15.322 35.4131 14.6806 36.0545C14.0393 36.6958 13.679 37.5656 13.679 38.4726C13.679 39.3796 14.0393 40.2494 14.6806 40.8907C15.322 41.5321 16.1918 41.8923 17.0988 41.8923ZM17.0988 55.5714C18.0057 55.5714 18.8756 55.2111 19.5169 54.5697C20.1582 53.9284 20.5185 53.0586 20.5185 52.1516C20.5185 51.2446 20.1582 50.3748 19.5169 49.7335C18.8756 49.0921 18.0057 48.7319 17.0988 48.7319C16.1918 48.7319 15.322 49.0921 14.6806 49.7335C14.0393 50.3748 13.679 51.2446 13.679 52.1516C13.679 53.0586 14.0393 53.9284 14.6806 54.5697C15.322 55.2111 16.1918 55.5714 17.0988 55.5714Z" fill="url(#paint0_linear_1219_7984)"/>
<defs>
<linearGradient id="paint0_linear_1219_7984" x1="34.1975" y1="27.3584" x2="34" y2="69" gradientUnits="userSpaceOnUse">
<stop stop-color="#F68A15"/>
<stop offset="1" stop-color="#F68A15" stop-opacity="0"/>
</linearGradient>
</defs>
</svg>
