<svg width="12" height="12" viewBox="0 0 12 12" fill="none" xmlns="http://www.w3.org/2000/svg">
<rect width="11.3585" height="11.3585" transform="matrix(-1 0 0 -1 11.7169 11.6445)" fill="white"/>
<path d="M10.5551 4.04195C10.422 3.90887 10.2414 3.8341 10.0532 3.8341C9.86495 3.8341 9.68441 3.90887 9.55129 4.04195L6.03726 7.55598L2.52324 4.04195C2.38935 3.91264 2.21003 3.84108 2.02389 3.8427C1.83776 3.84432 1.65971 3.91898 1.52808 4.0506C1.39646 4.18222 1.3218 4.36028 1.32018 4.54641C1.31857 4.73254 1.39012 4.91187 1.51944 5.04576L5.53536 9.06168C5.66849 9.19477 5.84902 9.26953 6.03726 9.26953C6.2255 9.26953 6.40604 9.19477 6.53916 9.06168L10.5551 5.04576C10.6882 4.91263 10.7629 4.7321 10.7629 4.54386C10.7629 4.35561 10.6882 4.17508 10.5551 4.04195Z" fill="#595858"/>
</svg>
