<svg width="68" height="62" viewBox="0 0 68 62" fill="none" xmlns="http://www.w3.org/2000/svg">
<path d="M50.1442 44.1288L42.2838 43.2314C41.3596 43.1228 40.4228 43.2251 39.5437 43.5306C38.6647 43.8362 37.8664 44.3369 37.2087 44.9953L31.5146 50.6894C22.7302 46.2206 15.5899 39.0803 11.121 30.2959L16.8461 24.5708C18.1768 23.2401 18.8266 21.3834 18.61 19.4956L17.7126 11.6972C17.5378 10.1873 16.8135 8.79453 15.6778 7.78435C14.542 6.77418 13.0743 6.21725 11.5543 6.21973H6.2006C2.70369 6.21973 -0.205255 9.12867 0.011368 12.6256C1.65152 39.0536 22.7878 60.1589 49.1848 61.7991C52.6818 62.0157 55.5907 59.1067 55.5907 55.6098V50.2561C55.6216 47.1306 53.2697 44.5002 50.1442 44.1288Z" fill="url(#paint0_linear_1219_8015)"/>
<path d="M43.2678 23.9658L33.6972 31.518L43.2678 23.9658ZM33.6972 31.518L39.6243 32.2167L33.6972 31.518ZM33.6972 31.518L34.3959 25.5909L33.6972 31.518ZM28.9345 20.9407L38.5051 13.3885L28.9345 20.9407ZM38.5051 13.3885L32.578 12.6898L38.5051 13.3885ZM38.5051 13.3885L37.8064 19.3157L38.5051 13.3885Z" fill="url(#paint1_linear_1219_8015)"/>
<path d="M43.2678 23.9658L33.6972 31.518M33.6972 31.518L39.6243 32.2167M33.6972 31.518L34.3959 25.5909M28.9345 20.9407L38.5051 13.3885M38.5051 13.3885L32.578 12.6898M38.5051 13.3885L37.8064 19.3157" stroke="url(#paint2_linear_1219_8015)" stroke-width="2.65253" stroke-linecap="round"/>
<path d="M57.1686 0C55.0264 0 52.9323 0.635237 51.1511 1.82538C49.3699 3.01552 47.9817 4.70712 47.1619 6.68626C46.3421 8.66539 46.1276 10.8432 46.5455 12.9442C46.9634 15.0453 47.995 16.9752 49.5098 18.49C51.0245 20.0047 52.9545 21.0363 55.0555 21.4542C57.1566 21.8721 59.3343 21.6576 61.3135 20.8379C63.2926 20.0181 64.9842 18.6298 66.1744 16.8486C67.3645 15.0675 67.9997 12.9734 67.9997 10.8312C67.9997 7.95856 66.8586 5.20361 64.8274 3.17237C62.7961 1.14114 60.0412 0 57.1686 0ZM62.1915 17.032C61.228 17.6323 60.1387 18.0018 59.0087 18.1115C57.8787 18.2213 56.7387 18.0683 55.6776 17.6646C54.6166 17.2609 53.6632 16.6173 52.892 15.7842C52.1207 14.9511 51.5525 13.951 51.2317 12.862H48.9369C48.7573 12.862 48.5852 12.7907 48.4582 12.6637C48.3313 12.5368 48.2599 12.3646 48.2599 12.1851C48.2599 12.0055 48.3313 11.8333 48.4582 11.7064C48.5852 11.5794 48.7573 11.5081 48.9369 11.5081H50.9677C50.9677 11.2712 50.9339 11.0275 50.9339 10.7838V10.1542H48.903C48.7235 10.1542 48.5513 10.0829 48.4244 9.95594C48.2974 9.82899 48.2261 9.65681 48.2261 9.47727C48.2261 9.29773 48.2974 9.12555 48.4244 8.99859C48.5513 8.87164 48.7235 8.80032 48.903 8.80032H51.2047C51.5111 7.70091 52.0694 6.68795 52.8351 5.84166C53.6009 4.99538 54.5532 4.33902 55.6166 3.92455C56.6801 3.51009 57.8254 3.34892 58.9619 3.45379C60.0984 3.55867 61.1948 3.92671 62.1644 4.52878C62.3438 4.65221 62.4686 4.84 62.513 5.05311C62.5574 5.26622 62.518 5.48825 62.403 5.67305C62.2879 5.85785 62.1061 5.99119 61.8952 6.04536C61.6844 6.09953 61.4608 6.07036 61.2709 5.96391C60.5587 5.52241 59.7573 5.24456 58.9247 5.15044C58.0921 5.05632 57.2489 5.14827 56.4562 5.41965C55.6634 5.69104 54.9408 6.13508 54.3405 6.71971C53.7402 7.30435 53.2773 8.01499 52.985 8.80032H59.3213C59.5008 8.80032 59.673 8.87164 59.7999 8.99859C59.9269 9.12555 59.9982 9.29773 59.9982 9.47727C59.9982 9.65681 59.9269 9.82899 59.7999 9.95594C59.673 10.0829 59.5008 10.1542 59.3213 10.1542H52.6533C52.5945 10.6036 52.5945 11.0587 52.6533 11.5081H59.301C59.4805 11.5081 59.6527 11.5794 59.7796 11.7064C59.9066 11.8333 59.9779 12.0055 59.9779 12.1851C59.9779 12.3646 59.9066 12.5368 59.7796 12.6637C59.6527 12.7907 59.4805 12.862 59.301 12.862H53.0189C53.3249 13.6344 53.7971 14.33 54.4022 14.8994C55.0073 15.4687 55.7303 15.8979 56.5199 16.1563C57.3095 16.4148 58.1463 16.4962 58.9709 16.3949C59.7955 16.2935 60.5877 16.0118 61.2912 15.5698C61.3854 15.5107 61.4904 15.4707 61.6001 15.4521C61.7097 15.4336 61.822 15.4368 61.9304 15.4616C62.0389 15.4865 62.1413 15.5324 62.232 15.5969C62.3227 15.6613 62.3998 15.743 62.4589 15.8372C62.518 15.9314 62.558 16.0364 62.5766 16.1461C62.5951 16.2557 62.5919 16.368 62.5671 16.4764C62.5422 16.5849 62.4963 16.6874 62.4319 16.778C62.3674 16.8687 62.2858 16.9458 62.1915 17.0049V17.032Z" fill="url(#paint3_linear_1219_8015)"/>
<defs>
<linearGradient id="paint0_linear_1219_8015" x1="27.7955" y1="6.21973" x2="27.7955" y2="61.8104" gradientUnits="userSpaceOnUse">
<stop stop-color="#F68A1E"/>
<stop offset="1" stop-color="#F68A1E" stop-opacity="0"/>
</linearGradient>
<linearGradient id="paint1_linear_1219_8015" x1="28.8569" y1="21.5993" x2="43.3455" y2="23.3072" gradientUnits="userSpaceOnUse">
<stop stop-color="#F68A1E"/>
<stop offset="1" stop-color="#F68A1E" stop-opacity="0"/>
</linearGradient>
<linearGradient id="paint2_linear_1219_8015" x1="37.188" y1="13.2332" x2="31.6126" y2="34.0409" gradientUnits="userSpaceOnUse">
<stop stop-color="#F68A1E"/>
<stop offset="1" stop-color="#F68A1E" stop-opacity="0"/>
</linearGradient>
<linearGradient id="paint3_linear_1219_8015" x1="57.1686" y1="0" x2="57.1686" y2="21.6623" gradientUnits="userSpaceOnUse">
<stop stop-color="#F68A1E"/>
<stop offset="1" stop-color="#F68A1E" stop-opacity="0"/>
</linearGradient>
</defs>
</svg>
