<svg width="17" height="16" viewBox="0 0 17 16" fill="none" xmlns="http://www.w3.org/2000/svg">
<path d="M7.45455 6H8.36364V9H7.45455V6ZM10.1818 3.85714H11.0909V9H10.1818V3.85714ZM12.9091 5.57143H13.8182V9H12.9091V5.57143ZM15.6364 3.85714H16.5455V9H15.6364V3.85714ZM14.7273 1.71429H15.1818V2.14286H14.7273V1.71429ZM14.2727 2.14286H14.7273V2.57143H14.2727V2.14286ZM12.9091 2.57143H13.8182V3H12.9091V2.57143ZM12.9091 3.85714H13.8182V4.28571H12.9091V3.85714ZM12.4545 3H12.9091V3.85714H12.4545V3ZM13.8182 3H14.2727V3.85714H13.8182V3ZM12 2.14286H12.4545V2.57143H12V2.14286ZM11.5455 1.71429H12V2.14286H11.5455V1.71429ZM10.1818 1.28571H11.0909V1.71429H10.1818V1.28571ZM10.1818 0H11.0909V0.428571H10.1818V0ZM11.0909 0.428571H11.5455V1.28571H11.0909V0.428571ZM9.72727 0.428571H10.1818V1.28571H9.72727V0.428571ZM15.6364 1.28571H16.5455V1.71429H15.6364V1.28571ZM15.1818 0.428571H15.6364V1.28571H15.1818V0.428571ZM15.6364 0H16.5455V0.428571H15.6364V0ZM16.5455 0.428571H17V1.28571H16.5455V0.428571ZM9.27273 2.14286H9.72727V2.57143H9.27273V2.14286ZM8.81818 2.57143H9.27273V3H8.81818V2.57143ZM8.36364 3.42857H8.81818V4.28571H8.36364V3.42857ZM7 3.42857H7.45455V4.28571H7V3.42857ZM7.45455 3H8.36364V3.42857H7.45455V3ZM7.45455 4.28571H8.36364V4.71429H7.45455V4.28571Z" fill="#F68A1E"/>
<path d="M3.21778 6.92444C4.49778 9.44 6.56 11.4933 9.07556 12.7822L11.0311 10.8267C11.2711 10.5867 11.6267 10.5067 11.9378 10.6133C12.9333 10.9422 14.0089 11.12 15.1111 11.12C15.6 11.12 16 11.52 16 12.0089V15.1111C16 15.6 15.6 16 15.1111 16C6.76444 16 0 9.23556 0 0.888889C0 0.4 0.4 0 0.888889 0H4C4.48889 0 4.88889 0.4 4.88889 0.888889C4.88889 2 5.06667 3.06667 5.39556 4.06222C5.49333 4.37333 5.42222 4.72 5.17333 4.96889L3.21778 6.92444Z" fill="#F68A1E"/>
</svg>
