<svg width="26" height="26" viewBox="0 0 26 26" fill="none" xmlns="http://www.w3.org/2000/svg">
<g clip-path="url(#clip0_1027_5217)">
<path d="M12.8247 25.6494C5.74289 25.6494 0 19.9065 0 12.8247C0 5.74289 5.74289 0 12.8247 0C19.9065 0 25.6494 5.74289 25.6494 12.8247C25.6494 19.9065 19.9065 25.6494 12.8247 25.6494Z" fill="url(#paint0_linear_1027_5217)"/>
<path d="M12.8248 5.64775C15.1615 5.64775 15.4385 5.65544 16.3618 5.69905C17.216 5.73752 17.6802 5.88116 17.988 6.00171C18.3958 6.16073 18.6882 6.35054 18.9935 6.65577C19.2987 6.96099 19.4885 7.2534 19.6475 7.66122C19.7681 7.96901 19.9092 8.43327 19.9502 9.28739C19.9912 10.2108 20.0015 10.4878 20.0015 12.8244C20.0015 15.1611 19.9938 15.4381 19.9502 16.3615C19.9117 17.2156 19.7681 17.6799 19.6475 17.9876C19.4885 18.3955 19.2987 18.6879 18.9935 18.9931C18.6882 19.2983 18.3958 19.4881 17.988 19.6472C17.6802 19.7677 17.216 19.9088 16.3618 19.9498C15.4385 19.9909 15.1615 20.0011 12.8248 20.0011C10.4881 20.0011 10.2111 19.9934 9.28776 19.9498C8.43363 19.9114 7.96938 19.7677 7.66159 19.6472C7.25376 19.4881 6.96136 19.2983 6.65613 18.9931C6.35091 18.6879 6.1611 18.3955 6.00208 17.9876C5.88152 17.6799 5.74045 17.2156 5.69941 16.3615C5.65837 15.4381 5.64811 15.1611 5.64811 12.8244C5.64811 10.4878 5.65581 10.2108 5.69941 9.28739C5.73789 8.43327 5.88152 7.96901 6.00208 7.66122C6.1611 7.2534 6.35091 6.96099 6.65613 6.65577C6.96136 6.35054 7.25376 6.16073 7.66159 6.00171C7.96938 5.88116 8.43363 5.74009 9.28776 5.69905C10.2111 5.65544 10.4881 5.64775 12.8248 5.64775ZM12.8248 4.07031C10.4471 4.07031 10.1496 4.08057 9.21594 4.12418C8.28487 4.16778 7.64876 4.31398 7.08961 4.532C6.51506 4.75259 6.02516 5.05268 5.54039 5.54002C5.05305 6.02736 4.75552 6.5147 4.5298 7.09181C4.31435 7.6484 4.16558 8.2845 4.12198 9.21814C4.07837 10.1518 4.06812 10.4493 4.06812 12.827C4.06812 15.2047 4.07837 15.5022 4.12198 16.4359C4.16558 17.3669 4.31178 18.003 4.5298 18.5622C4.75295 19.1342 5.05305 19.6241 5.54039 20.1089C6.02773 20.5962 6.51506 20.8937 7.09217 21.1194C7.64876 21.3349 8.28487 21.4837 9.2185 21.5273C10.1521 21.5709 10.4497 21.5811 12.8274 21.5811C15.2051 21.5811 15.5026 21.5709 16.4362 21.5273C17.3673 21.4837 18.0034 21.3375 18.5626 21.1194C19.1345 20.8963 19.6244 20.5962 20.1092 20.1089C20.5966 19.6215 20.8941 19.1342 21.1198 18.5571C21.3353 18.0005 21.484 17.3644 21.5276 16.4307C21.5712 15.4971 21.5815 15.1996 21.5815 12.8219C21.5815 10.4442 21.5712 10.1466 21.5276 9.21301C21.484 8.28194 21.3378 7.64583 21.1198 7.08668C20.8967 6.5147 20.5966 6.02479 20.1092 5.54002C19.6219 5.05268 19.1345 4.75515 18.5574 4.52944C18.0008 4.31398 17.3647 4.16522 16.4311 4.12161C15.5 4.08057 15.2025 4.07031 12.8248 4.07031Z" fill="white"/>
<path d="M12.8248 8.32812C10.342 8.32812 8.32849 10.3416 8.32849 12.8245C8.32849 15.3073 10.342 17.3208 12.8248 17.3208C15.3077 17.3208 17.3212 15.3073 17.3212 12.8245C17.3212 10.3416 15.3077 8.32812 12.8248 8.32812ZM12.8248 15.7434C11.214 15.7434 9.90593 14.4378 9.90593 12.8245C9.90593 11.2111 11.214 9.90556 12.8248 9.90556C14.4356 9.90556 15.7437 11.2111 15.7437 12.8245C15.7437 14.4378 14.4356 15.7434 12.8248 15.7434Z" fill="white"/>
<path d="M17.4983 9.2009C18.0791 9.2009 18.5499 8.73008 18.5499 8.14928C18.5499 7.56848 18.0791 7.09766 17.4983 7.09766C16.9175 7.09766 16.4467 7.56848 16.4467 8.14928C16.4467 8.73008 16.9175 9.2009 17.4983 9.2009Z" fill="white"/>
</g>
<defs>
<linearGradient id="paint0_linear_1027_5217" x1="3.75626" y1="21.8931" x2="21.8931" y2="3.75626" gradientUnits="userSpaceOnUse">
<stop stop-color="#FFD521"/>
<stop offset="0.0551048" stop-color="#FFD020"/>
<stop offset="0.1241" stop-color="#FEC01E"/>
<stop offset="0.2004" stop-color="#FCA71B"/>
<stop offset="0.2821" stop-color="#FA8316"/>
<stop offset="0.3681" stop-color="#F85510"/>
<stop offset="0.4563" stop-color="#F51E09"/>
<stop offset="0.5" stop-color="#F30005"/>
<stop offset="0.5035" stop-color="#F20007"/>
<stop offset="0.5966" stop-color="#E1003B"/>
<stop offset="0.6879" stop-color="#D30067"/>
<stop offset="0.7757" stop-color="#C70088"/>
<stop offset="0.8589" stop-color="#BF00A0"/>
<stop offset="0.9357" stop-color="#BB00AF"/>
<stop offset="1" stop-color="#B900B4"/>
</linearGradient>
<clipPath id="clip0_1027_5217">
<rect width="25.6494" height="25.6494" fill="white"/>
</clipPath>
</defs>
</svg>
