<svg width="68" height="59" viewBox="0 0 68 59" fill="none" xmlns="http://www.w3.org/2000/svg">
<path d="M33.4745 18.5455L43.2727 28.3127V27.8182C43.2727 25.3589 42.2958 23.0003 40.5568 21.2614C38.8178 19.5224 36.4593 18.5455 34 18.5455H33.4745ZM20.1836 21.0182L24.9745 25.8091C24.82 26.4582 24.7273 27.1073 24.7273 27.8182C24.7273 30.2775 25.7042 32.636 27.4432 34.375C29.1822 36.114 31.5407 37.0909 34 37.0909C34.68 37.0909 35.36 36.9982 36.0091 36.8436L40.8 41.6345C38.7291 42.6545 36.4418 43.2727 34 43.2727C29.9012 43.2727 25.9703 41.6445 23.072 38.7462C20.1737 35.8479 18.5455 31.917 18.5455 27.8182C18.5455 25.3764 19.1636 23.0891 20.1836 21.0182ZM3.09091 3.92545L10.1382 10.9727L11.5291 12.3636C6.42909 16.3818 2.41091 21.6364 0 27.8182C5.34727 41.3873 18.5455 51 34 51C38.7909 51 43.3655 50.0727 47.5382 48.4036L48.8673 49.7018L57.8927 58.7273L61.8182 54.8018L7.01636 0M34 12.3636C38.0988 12.3636 42.0297 13.9919 44.928 16.8902C47.8263 19.7885 49.4545 23.7194 49.4545 27.8182C49.4545 29.7964 49.0527 31.7127 48.3418 33.4436L57.3982 42.5C62.0345 38.6364 65.7436 33.5673 68 27.8182C62.6527 14.2491 49.4545 4.63636 34 4.63636C29.6727 4.63636 25.5309 5.40909 21.6364 6.8L28.3436 13.4455C30.1055 12.7655 31.9909 12.3636 34 12.3636Z" fill="url(#paint0_linear_1219_8000)"/>
<defs>
<linearGradient id="paint0_linear_1219_8000" x1="34" y1="0" x2="34" y2="58.7273" gradientUnits="userSpaceOnUse">
<stop stop-color="#F68A1E"/>
<stop offset="1" stop-color="#F68A1E" stop-opacity="0"/>
</linearGradient>
</defs>
</svg>
